<svg xmlns="http://www.w3.org/2000/svg" width="902" height="208" viewBox="262 301 902 208" preserveAspectRatio="xMidYMid meet">
  <defs>
    <clipPath id="clip1">
      <path d="M 262.1 301 L 700.4 301 L 700.4 508.8 L 262.1 508.8 Z" />
    </clipPath>
    <clipPath id="clip2">
      <path d="M 625.5 508.8 L 513.9 423.8 L 535.3 396.4 C 559.8 414.5 586.2 422.9 616.6 414.3 C 672.0 398.5 655.1 339.6 600.4 337.5 C 522.8 334.5 490.2 472.4 390.7 488.6 C 311.4 501.4 228.6 442.8 276.3 360.1 C 317.1 289.5 427.8 284.7 486.8 334.8 L 461.1 363.8 C 425.9 337.3 378.8 326.6 339.8 352.1 C 288.9 385.4 311.7 452.4 371.6 451.8 C 453.4 451.0 483.5 311.3 584.4 301.8 C 639.4 296.7 706.9 320.1 699.7 386.5 C 695.6 424.4 655.9 447.3 621.1 450.8 L 697.9 508.8 Z" />
    </clipPath>
  </defs>
  <g clip-path="url(#clip1)">
    <g clip-path="url(#clip2)">
      <rect x="262" y="301" width="438" height="208" fill="currentColor" />
    </g>
  </g>
  <path fill="currentColor" d="M 769.8 381.8 L 769.8 343.5 L 802.6 343.5 C 807.9 343.5 812.4 345.4 816.1 349.1 C 819.9 352.9 821.9 357.4 821.9 362.6 C 821.9 367.9 819.9 372.4 816.1 376.1 C 812.4 379.9 807.9 381.8 802.6 381.8 Z M 815.2 395.5 C 822.6 392.7 828.3 388.2 832.2 382.0 C 835.9 376.5 837.8 370.2 837.8 363.1 C 837.8 357.0 836.4 351.2 833.5 345.7 C 830.7 340.2 826.7 335.8 821.5 332.6 C 815.9 329.0 809.6 327.2 802.4 327.2 L 753.5 327.2 L 753.5 453.1 L 769.8 453.1 L 769.8 397.9 L 798.5 397.9 L 822.6 453.1 L 840.4 453.1 Z" />
  <path fill="currentColor" d="M 855.2 419.2 C 854.5 416.6 854.1 414.0 854.1 411.4 C 854.1 403.5 857.1 396.9 863.0 391.4 C 868.6 386.1 875.2 383.4 882.9 383.4 C 890.3 383.4 896.9 386.2 902.4 391.8 L 902.1 392.0 L 901.3 392.4 L 899.5 393.5 L 894.8 396.3 L 894.4 396.5 L 894.3 396.5 L 891.1 398.3 L 890.7 398.5 L 890.5 398.7 L 890.2 398.9 L 889.8 399.1 L 889.6 399.3 L 889.2 399.4 L 889.0 399.4 L 888.9 399.6 L 888.7 399.6 L 888.3 400.0 L 888.1 400.0 L 884.4 402.2 L 883.7 402.6 L 883.1 403.0 L 882.5 403.4 L 882.4 403.4 L 882.2 403.5 L 882.0 403.5 L 881.8 403.7 L 877.9 406.0 L 877.1 406.3 L 876.8 406.5 L 875.8 407.1 L 875.7 407.3 L 875.3 407.4 Z M 882.5 440.0 L 882.4 440.0 C 875.3 440.0 869.1 437.7 863.8 432.9 L 924.7 397.8 C 921.5 387.7 915.9 380.0 908.0 374.7 C 900.7 369.7 892.5 367.3 883.3 367.3 C 875.6 367.3 868.3 369.1 861.5 372.7 C 854.3 376.3 848.7 381.3 844.6 387.7 C 840.2 394.8 837.9 402.9 837.9 411.9 C 837.9 420.5 840.2 428.3 844.6 435.4 C 848.7 441.9 854.3 447.1 861.3 450.8 C 868.2 454.5 875.5 456.4 883.3 456.4 C 890.0 456.4 896.3 455.0 902.2 452.1 C 908.6 448.9 914.0 444.2 918.4 438.2 L 904.3 429.8 C 898.2 436.6 891.0 440.0 882.5 440.0 Z" />
  <rect x="932.2" y="327.4" width="16.3" height="126.2" fill="currentColor" />
  <path fill="currentColor" d="M 980.6 367.3 L 970.4 393.8 L 954.4 434.8 L 938.5 393.8 L 928.1 367.3 L 912.4 367.3 L 946.1 453.5 L 947.0 453.5 L 931.8 492.9 L 947.4 492.9 L 996.3 367.3 Z" transform="translate(44, 0)" />
  <g opacity="0.5">
    <path fill="currentColor" d="M 1049.1 443.6 C 1049.3 445.5 1050.5 447.0 1052.1 448.0 C 1053.6 449.1 1055.6 449.6 1057.6 449.6 C 1059.4 449.6 1061.5 449.2 1063.2 448.3 C 1064.8 447.4 1066.0 445.9 1066.0 443.7 C 1066.0 441.4 1064.6 440.2 1062.4 439.4 C 1060.2 438.6 1057.2 438.2 1054.3 437.6 C 1051.3 437.0 1048.4 436.3 1046.1 434.8 C 1043.9 433.3 1042.4 431.0 1042.4 427.5 C 1042.4 423.5 1044.3 420.6 1047.0 418.6 C 1049.7 416.7 1053.4 415.8 1057.0 415.8 C 1061.4 415.8 1064.9 416.9 1067.5 418.8 C 1070.0 420.8 1071.6 423.5 1072.2 426.9 L 1065.3 426.9 C 1064.9 424.9 1063.7 423.5 1062.3 422.6 C 1060.9 421.7 1059.1 421.3 1057.3 421.3 C 1055.5 421.3 1053.5 421.7 1051.9 422.5 C 1050.3 423.4 1049.1 424.8 1049.1 426.8 C 1049.1 429.0 1050.6 430.3 1052.8 431.1 C 1055.1 431.9 1058.0 432.3 1060.9 432.8 C 1063.8 433.4 1066.8 434.1 1069.0 435.6 C 1071.2 437.0 1072.7 439.3 1072.7 442.8 C 1072.7 447.1 1070.9 450.2 1068.0 452.1 C 1065.2 454.1 1061.5 455.1 1057.7 455.1 C 1053.0 455.1 1049.4 453.8 1046.8 451.7 C 1044.2 449.7 1042.7 446.8 1042.3 443.6 Z" />
    <path fill="currentColor" d="M 1104.4 453.8 L 1097.9 453.8 L 1097.9 450.8 C 1095.9 453.3 1092.4 454.9 1089.0 454.9 C 1084.6 454.9 1081.3 453.1 1079.2 450.3 C 1077.0 447.5 1075.9 443.6 1075.9 439.3 L 1075.9 427.3 L 1082.4 427.3 L 1082.4 439.0 C 1082.4 442.5 1083.0 445.1 1084.2 446.9 C 1085.4 448.6 1087.2 449.5 1089.5 449.5 C 1092.1 449.5 1094.2 448.5 1095.6 446.4 C 1097.1 444.4 1097.8 441.4 1097.8 437.6 L 1097.8 427.3 L 1104.4 427.3 Z" />
    <path fill="currentColor" d="M 1127.1 434.4 C 1125.7 432.9 1123.8 432.1 1121.5 432.1 C 1119.3 432.1 1117.3 432.9 1115.9 434.4 C 1114.6 435.9 1113.7 437.9 1113.7 440.4 C 1113.7 442.9 1114.6 445.0 1115.9 446.4 C 1117.3 447.8 1119.3 448.7 1121.5 448.7 C 1123.8 448.7 1125.7 447.8 1127.1 446.3 C 1128.5 444.9 1129.3 442.8 1129.3 440.4 C 1129.3 437.9 1128.5 435.9 1127.1 434.4 M 1113.9 417.0 L 1113.9 429.4 C 1115.0 428.4 1116.3 427.7 1117.7 427.1 C 1119.1 426.6 1120.7 426.3 1122.4 426.3 C 1126.3 426.3 1129.7 427.8 1132.1 430.3 C 1134.4 432.8 1135.8 436.3 1135.8 440.4 C 1135.8 444.4 1134.3 447.9 1131.8 450.4 C 1129.2 452.9 1125.6 454.4 1121.4 454.4 C 1117.4 454.4 1113.9 453.0 1111.4 450.7 C 1108.9 448.3 1107.4 445.1 1107.4 441.1 L 1107.4 417.0 Z" />
    <path fill="currentColor" d="M 1144.8 445.7 C 1145.0 447.3 1145.8 448.4 1146.9 449.1 C 1148.1 449.8 1149.4 450.1 1150.8 450.1 C 1152.1 450.1 1153.6 449.9 1154.8 449.3 C 1156.0 448.7 1156.8 447.7 1156.8 446.3 C 1156.7 444.5 1154.8 443.8 1152.1 443.3 C 1150.8 443.0 1149.4 442.8 1147.9 442.5 C 1144.8 442.1 1142.0 441.0 1140.3 439.0 C 1139.4 438.0 1139.0 436.6 1139.1 434.8 C 1139.1 431.7 1140.7 429.6 1142.9 428.3 C 1145.1 426.9 1148.0 426.4 1150.6 426.4 C 1154.0 426.4 1156.8 427.2 1158.8 428.6 C 1160.8 430.0 1162.1 432.0 1162.6 434.3 L 1156.5 434.3 C 1156.2 433.0 1155.2 432.3 1154.1 431.8 C 1153.0 431.3 1151.7 431.1 1150.7 431.1 C 1149.7 431.1 1148.3 431.3 1147.2 431.8 C 1146.0 432.4 1145.1 433.2 1145.1 434.5 C 1145.1 436.2 1147.0 436.9 1149.6 437.4 C 1150.9 437.7 1152.3 438.0 1153.9 438.2 C 1156.9 438.7 1159.6 439.7 1161.4 441.7 C 1162.2 442.7 1162.7 444.0 1162.7 445.8 C 1162.7 449.0 1161.2 451.3 1158.9 452.7 C 1156.7 454.2 1153.6 454.8 1150.7 454.8 C 1147.2 454.8 1144.3 453.8 1142.3 452.2 C 1140.2 450.6 1138.9 448.3 1138.6 445.7 Z" />
  </g>
</svg>
